<svg width="11" height="9" viewBox="0 0 11 9" fill="none" xmlns="http://www.w3.org/2000/svg">
<path d="M5.07816 1.56844L5.49999 2.23131L5.92182 1.56844C6.31083 0.957151 6.99923 0.5625 7.79166 0.5625C9.02802 0.5625 10.0417 1.57614 10.0417 2.8125C10.0417 3.34956 9.79283 3.93344 9.3507 4.53635C8.91237 5.13407 8.31704 5.70536 7.70421 6.20677C7.09384 6.70616 6.48097 7.12424 6.01932 7.41801C5.8093 7.55166 5.63157 7.65895 5.50092 7.73583C5.37016 7.65835 5.19218 7.55018 4.98181 7.41551C4.52 7.11989 3.90691 6.69958 3.29631 6.19861C2.68323 5.6956 2.0876 5.12338 1.64906 4.52636C1.20641 3.92377 0.958328 3.34301 0.958328 2.8125C0.958328 1.57614 1.97197 0.5625 3.20833 0.5625C4.00076 0.5625 4.68916 0.957151 5.07816 1.56844Z" fill="white" stroke="#FF9401"/>
</svg>
