<svg width="91" height="116" viewBox="0 0 91 116" fill="none" xmlns="http://www.w3.org/2000/svg">
<circle cx="45.5" cy="80.8401" r="35.0729" fill="#FFF5E4"/>
<path d="M45.5 3.13153C21.9424 3.13153 2.84373 21.8177 2.84373 44.8549C2.84373 67.9032 21.9424 86.5894 45.5 86.5894C69.0548 86.5894 88.1562 67.9032 88.1562 44.8549C88.1562 21.8094 69.0548 3.13153 45.5 3.13153ZM76.9917 69.0911C76.2628 69.8173 75.3922 70.3929 74.4315 70.7835C73.4709 71.1742 72.4398 71.372 71.3994 71.3653C68.0282 71.3653 64.3384 69.4986 60.7283 65.967C59.3163 64.5857 58.0608 63.3547 57.4779 62.6259C59.7585 61.6022 61.8773 60.2639 63.7696 58.6519L74.5617 66.7153L66.312 56.1426C67.9468 54.2699 69.2606 52.1504 70.2022 49.8666C70.9117 50.3548 72.2654 51.6762 73.7981 53.177C79.7999 59.0497 81.0227 65.1477 76.9917 69.0911ZM75.8115 51.2088C73.4412 48.8915 72.1672 47.6494 71.0667 47.1556C71.125 45.7382 69.1927 45.1957 68.4064 46.2779C62.2525 54.7725 54.9682 56.9118 45.5 56.9118C36.0317 56.9118 28.7475 54.7739 22.5922 46.2779C21.7348 45.0955 19.4782 45.8397 19.9773 47.5562C23.2092 58.6908 34.1961 65.1755 45.5 65.1755C48.6526 65.1702 51.7831 64.6609 54.7678 63.6677C55.3749 64.6581 56.6134 65.871 58.7192 67.9324C62.6279 71.7548 66.7385 73.8593 70.6586 74.0985C63.8535 79.7153 55.0777 83.112 45.5 83.112C23.9387 83.112 6.39842 65.9503 6.39842 44.8549C6.39842 23.7665 23.9387 6.60894 45.5 6.60894C67.0599 6.60894 84.6015 23.7665 84.6015 44.8549C84.6015 50.1267 83.4982 55.148 81.5175 59.7215C80.6615 57.0843 78.8756 54.2091 75.8115 51.2088Z" fill="#2E2E2E"/>
<path d="M29.9519 24.2547C25.9692 24.2547 21.9866 27.8128 19.3447 34.922C19.0831 35.6384 20.4452 36.9292 21.1277 36.2267C23.69 33.5825 26.7541 32.5296 29.9533 32.5296C33.1525 32.5296 36.2153 33.5825 38.7789 36.2267C39.46 36.9292 40.8236 35.637 40.5619 34.922C37.9172 27.8114 33.9346 24.2547 29.9519 24.2547Z" fill="#FF9401"/>
<path d="M61.0485 24.2547C57.0658 24.2547 53.0832 27.8128 50.4399 34.922C50.1783 35.6384 51.5419 36.9292 52.2229 36.2267C54.7866 33.5825 57.8493 32.5296 61.0485 32.5296C64.2477 32.5296 67.3105 33.5825 69.8741 36.2267C70.5552 36.9292 71.9188 35.637 71.6571 34.922C69.0124 27.8114 65.0298 24.2547 61.0485 24.2547Z" fill="#FF9401"/>
</svg>
