<svg width="101" height="129" viewBox="0 0 101 129" fill="none" xmlns="http://www.w3.org/2000/svg">
<circle cx="53" cy="92" r="37" fill="#FFF5E4"/>
<path d="M80.4844 79.6953C77.0125 79.6953 74.1719 82.5359 74.1719 86.0078C74.1719 89.4797 77.0125 92.3203 80.4844 92.3203C83.9563 92.3203 86.7969 89.4797 86.7969 86.0078C86.7969 82.5359 83.9563 79.6953 80.4844 79.6953ZM80.4844 89.1641C78.7484 89.1641 77.3281 87.7438 77.3281 86.0078C77.3281 84.2719 78.7484 82.8516 80.4844 82.8516C82.2203 82.8516 83.6406 84.2719 83.6406 86.0078C83.6406 87.7438 82.2203 89.1641 80.4844 89.1641Z" fill="#FF9401"/>
<path d="M20.5156 79.6953C17.0437 79.6953 14.2031 82.5359 14.2031 86.0078C14.2031 89.4797 17.0437 92.3203 20.5156 92.3203C23.9875 92.3203 26.8281 89.4797 26.8281 86.0078C26.8281 82.5359 23.9875 79.6953 20.5156 79.6953ZM20.5156 89.1641C18.7797 89.1641 17.3594 87.7437 17.3594 86.0078C17.3594 84.2719 18.7797 82.8516 20.5156 82.8516C22.2516 82.8516 23.6719 84.2719 23.6719 86.0078C23.6719 87.7437 22.2516 89.1641 20.5156 89.1641Z" fill="#FF9401"/>
<path d="M1.57812 87.5859H8.00898C8.79805 93.7998 14.1045 98.6328 20.5156 98.6328C26.9268 98.6328 32.2529 93.7998 33.0223 87.5859H67.958C68.7471 93.7998 74.0535 98.6328 80.4646 98.6328C86.8758 98.6328 92.202 93.7998 92.9713 87.5859H99.4219C100.29 87.5859 101 86.8758 101 86.0078V76.5391V59.1797C101 59.1402 100.98 59.1008 100.98 59.0613C100.98 58.9627 100.941 58.8641 100.921 58.7654C100.882 58.6668 100.862 58.5682 100.803 58.4695C100.783 58.4301 100.783 58.3906 100.763 58.3709L88.1383 37.8553C88.0988 37.7961 88.0594 37.7764 88.0199 37.7369C87.9607 37.658 87.8818 37.5791 87.8029 37.5002C87.724 37.441 87.6451 37.3818 87.5662 37.3424C87.4873 37.3029 87.3887 37.2437 87.29 37.224C87.1914 37.1846 87.073 37.1648 86.9744 37.1648C86.9152 37.1648 86.8561 37.1254 86.7969 37.1254H66.2812C65.4133 37.1254 64.7031 37.8355 64.7031 38.7035V59.1797H59.1008C59.6531 58.2525 59.9688 57.1873 59.9688 56.0234H61.5469C62.4148 56.0234 63.125 55.3133 63.125 54.4453C63.125 53.5773 62.4148 52.8672 61.5469 52.8672H59.9688V49.7307C59.9688 35.5275 49.4939 23.7705 35.8629 21.6795C36.1391 21.0877 36.2969 20.417 36.2969 19.7266C36.2969 17.1227 34.1664 14.9922 31.5625 14.9922C28.9586 14.9922 26.8281 17.1227 26.8281 19.7266C26.8281 20.4367 26.9859 21.0877 27.2621 21.6795C13.6311 23.7705 3.15625 35.5275 3.15625 49.7307V52.8672H1.57812C0.710156 52.8672 0 53.5773 0 54.4453C0 55.3133 0.710156 56.0234 1.57812 56.0234H3.15625C3.15625 57.1676 3.4916 58.2525 4.02422 59.1797H1.57812C0.710156 59.1797 0 59.8898 0 60.7578V76.5391V86.0078C0 86.8758 0.710156 87.5859 1.57812 87.5859ZM66.2812 73.3828C67.1492 73.3828 67.8594 72.6727 67.8594 71.8047V40.2422H85.9092L97.8438 59.6334V76.5391V84.4297H92.991C92.202 78.2158 86.8955 73.3828 80.4844 73.3828C74.0732 73.3828 68.7471 78.2158 67.9777 84.4297H33.0223C32.2332 78.2158 26.9268 73.3828 20.5156 73.3828C14.1045 73.3828 8.77832 78.2158 8.00898 84.4297H3.15625V76.5391V68.6484H64.7031V71.8047C64.7031 72.6727 65.4133 73.3828 66.2812 73.3828ZM20.5156 95.4766C15.2881 95.4766 11.0469 91.2354 11.0469 86.0078C11.0469 80.7803 15.2881 76.5391 20.5156 76.5391C25.7432 76.5391 29.9844 80.7803 29.9844 86.0078C29.9844 91.2354 25.7432 95.4766 20.5156 95.4766ZM80.4844 95.4766C75.2568 95.4766 71.0156 91.2354 71.0156 86.0078C71.0156 80.7803 75.2568 76.5391 80.4844 76.5391C85.7119 76.5391 89.9531 80.7803 89.9531 86.0078C89.9531 91.2354 85.7119 95.4766 80.4844 95.4766ZM64.7031 65.4922H3.15625V62.3359H9.4293C9.44902 62.3359 9.44902 62.3359 9.46875 62.3359C9.46875 62.3359 9.46875 62.3359 9.48848 62.3359H53.6365C53.6365 62.3359 53.6365 62.3359 53.6562 62.3359C53.676 62.3359 53.676 62.3359 53.6957 62.3359H64.7031V65.4922ZM31.5625 18.1484C32.4305 18.1484 33.1406 18.8586 33.1406 19.7266C33.1406 20.5945 32.4305 21.3047 31.5625 21.3047C30.6945 21.3047 29.9844 20.5945 29.9844 19.7266C29.9844 18.8586 30.6945 18.1484 31.5625 18.1484ZM31.5625 24.4807C45.4895 24.4807 56.8125 35.8037 56.8125 49.7307V52.8672H6.3125V49.7307C6.3125 35.8037 17.6355 24.4807 31.5625 24.4807ZM6.3125 56.0234H56.8125C56.8125 57.7594 55.4119 59.16 53.6957 59.1797H9.4293C7.71309 59.16 6.3125 57.7594 6.3125 56.0234Z" fill="#2E2E2E"/>
<path d="M71.0156 57.6015H91.5313C91.7088 57.6015 91.8863 57.5621 92.0639 57.4832C92.1231 57.4634 92.1625 57.4437 92.202 57.424C92.2414 57.4042 92.3006 57.3845 92.34 57.3648C92.3992 57.3253 92.419 57.2859 92.4584 57.2464C92.5373 57.1873 92.6162 57.1083 92.6951 57.0294C92.7543 56.9505 92.8135 56.8716 92.8529 56.7927C92.8924 56.7138 92.9516 56.6152 92.9713 56.5166C93.0107 56.4179 93.0305 56.2996 93.0305 56.2009C93.0305 56.1417 93.0699 56.0826 93.0699 56.0234C93.0699 55.9839 93.0502 55.9445 93.0502 55.905C93.0502 55.8064 93.0107 55.7078 92.991 55.5894C92.9516 55.4908 92.9318 55.3921 92.8727 55.2935C92.8529 55.254 92.8529 55.2146 92.8332 55.1949L85.0609 42.5699C85.0215 42.5107 84.982 42.491 84.9426 42.4318C84.8834 42.3529 84.8242 42.274 84.7453 42.2148C84.6664 42.1359 84.5678 42.0964 84.4889 42.0373C84.41 41.9978 84.3311 41.9584 84.2522 41.9189C84.1338 41.8794 84.0154 41.8597 83.8971 41.84C83.8379 41.84 83.7984 41.8005 83.7393 41.8005H77.3281C77.3281 41.8005 77.3281 41.8005 77.3084 41.8005C77.2887 41.8005 77.3084 41.8005 77.2887 41.8005H71.0156C70.1477 41.8005 69.4375 42.5107 69.4375 43.3787V56.0037C69.4375 56.8914 70.1477 57.6015 71.0156 57.6015ZM82.891 44.9765L88.7104 54.4453H78.9063V44.9765H82.891ZM75.75 54.4453H72.5938V44.9765H75.75V54.4453Z" fill="#2E2E2E"/>
<path d="M71.0156 67.0703H72.5938C73.4617 67.0703 74.1719 66.3602 74.1719 65.4922C74.1719 64.6242 73.4617 63.9141 72.5938 63.9141H71.0156C70.1477 63.9141 69.4375 64.6242 69.4375 65.4922C69.4375 66.3602 70.1477 67.0703 71.0156 67.0703Z" fill="#FF9401"/>
<path d="M31.5429 30.7734C41.998 30.7734 50.5001 39.2756 50.5001 49.7307C50.5001 50.5986 51.2103 51.3088 52.0783 51.3088C52.9462 51.3088 53.6564 50.5986 53.6564 49.7307C53.6564 37.5397 43.7339 27.6172 31.5429 27.6172C30.6749 27.6172 29.9648 28.3273 29.9648 29.1953C29.9648 30.0633 30.6749 30.7734 31.5429 30.7734Z" fill="#FF9401"/>
<path d="M14.6766 19.2729C14.9922 19.5885 15.3867 19.7266 15.801 19.7266C16.2152 19.7266 16.6098 19.5688 16.9254 19.2729C18.3654 17.8329 20.2395 14.0651 17.0438 10.0606C14.9133 7.41724 16.5703 5.42485 16.9451 5.05005C17.5566 4.43853 17.5566 3.43247 16.9451 2.82095C16.3336 2.20942 15.3275 2.20942 14.716 2.82095C13.276 4.26099 11.402 8.02876 14.5977 12.0333C16.7281 14.6963 15.0514 16.669 14.716 17.0438C14.0453 17.6553 14.0453 18.6416 14.6766 19.2729Z" fill="#FF9401"/>
<path d="M46.2194 19.2729C46.535 19.5885 46.9296 19.7266 47.3438 19.7266C47.7581 19.7266 48.1526 19.5688 48.4682 19.2729C49.9083 17.8329 51.7823 14.0651 48.5866 10.0606C46.4561 7.41724 48.1132 5.42485 48.488 5.05005C49.0995 4.43853 49.0995 3.43247 48.488 2.82095C47.8764 2.20942 46.8704 2.20942 46.2589 2.82095C44.8188 4.26099 42.9448 8.02876 46.1405 12.0333C48.271 14.6963 46.5942 16.669 46.2589 17.0438C45.6079 17.6553 45.6079 18.6416 46.2194 19.2729Z" fill="#FF9401"/>
<path d="M32.6868 2.82095C32.0753 2.20942 31.0693 2.20942 30.4577 2.82095C29.0177 4.26099 27.1437 8.02876 30.3394 12.0333C30.655 12.4278 31.1087 12.625 31.5822 12.625C31.9372 12.625 32.2726 12.5067 32.5685 12.27C33.2392 11.7176 33.3576 10.7313 32.8052 10.0606C30.6747 7.41724 32.3318 5.42485 32.7066 5.05005C33.2984 4.43853 33.2984 3.4522 32.6868 2.82095Z" fill="#FF9401"/>
</svg>
