<svg width="25" height="25" viewBox="0 0 25 25" fill="none" xmlns="http://www.w3.org/2000/svg">
<path d="M17.7022 8.42598L17.4347 7.54556C17.0949 6.54546 16.0087 6.0102 15.0086 6.34999C14.446 6.54114 14.0042 6.98296 13.813 7.54556L13.5455 8.42598C13.3204 9.16848 13.2732 9.95353 13.4076 10.7176C13.5302 11.361 13.9387 11.9137 14.5176 12.2197L14.218 18.9168C14.1779 19.2906 14.2992 19.6638 14.5514 19.9426C15.0937 20.5359 16.0143 20.5771 16.6076 20.0348C16.6397 20.0055 16.6704 19.9747 16.6997 19.9426C16.9463 19.6717 17.0673 19.3095 17.033 18.9447L16.7318 12.2189C17.31 11.9127 17.7177 11.3604 17.8401 10.7176C17.9746 9.95353 17.9273 9.16848 17.7022 8.42598ZM17.0193 10.5726C16.9291 11.0348 16.5997 11.4141 16.1547 11.5681C15.9858 11.6316 15.877 11.7966 15.8851 11.9768L16.2018 19.0106C16.2164 19.1485 16.1709 19.2861 16.0768 19.3881C15.8259 19.6365 15.4218 19.6365 15.171 19.3881C15.0722 19.2779 15.0274 19.1295 15.0485 18.9831L15.3626 11.9768C15.3707 11.7966 15.2619 11.6316 15.093 11.5681C14.648 11.4141 14.3187 11.0348 14.2285 10.5726C14.117 9.93827 14.1563 9.28655 14.343 8.67015L14.6105 7.78931C14.8175 7.22968 15.439 6.94379 15.9987 7.15077C16.2946 7.2602 16.5278 7.49348 16.6372 7.78931L16.9047 8.67015C17.0913 9.28661 17.1305 9.93827 17.0193 10.5726Z" fill="#FF9401"/>
<path d="M11.2491 6.25C11.019 6.25 10.8325 6.43656 10.8325 6.66667V10.2442L9.70454 11.3721C9.6211 11.4552 9.57673 11.5698 9.58246 11.6875L9.94704 18.9792C9.95574 19.1364 9.89866 19.2902 9.78954 19.4038C9.56147 19.6339 9.19001 19.6355 8.95986 19.4074C8.95861 19.4062 8.95741 19.4049 8.95621 19.4038C8.84704 19.2902 8.79001 19.1364 8.79871 18.9792L9.16579 11.6875C9.17163 11.5699 9.12741 11.4553 9.04413 11.3721L7.91579 10.2442V6.66667C7.91579 6.43656 7.72923 6.25 7.49913 6.25C7.26902 6.25 7.08246 6.43656 7.08246 6.66667V10.4167C7.08246 10.5272 7.12642 10.6331 7.20454 10.7113L8.32371 11.8308L7.96829 18.9388C7.93048 19.7152 8.52923 20.3753 9.30564 20.4131C10.082 20.4509 10.7421 19.8521 10.78 19.0757C10.7822 19.0301 10.7822 18.9844 10.78 18.9388L10.4245 11.8309L11.5437 10.7113C11.6218 10.6332 11.6658 10.5272 11.6658 10.4167V6.66672C11.6658 6.43656 11.4792 6.25 11.2491 6.25Z" fill="#FF9401"/>
<path d="M8.74913 6.25C8.51902 6.25 8.33246 6.43656 8.33246 6.66667V10C8.33246 10.2301 8.51902 10.4167 8.74913 10.4167C8.97923 10.4167 9.16579 10.2301 9.16579 10V6.66667C9.16579 6.43656 8.97923 6.25 8.74913 6.25Z" fill="#FF9401"/>
<path d="M9.99919 6.25C9.76908 6.25 9.58252 6.43656 9.58252 6.66667V10C9.58252 10.2301 9.76908 10.4167 9.99919 10.4167C10.2293 10.4167 10.4159 10.2301 10.4159 10V6.66667C10.4159 6.43656 10.2293 6.25 9.99919 6.25Z" fill="#FF9401"/>
<path d="M12.5 0C5.59646 0 0 5.59646 0 12.5C0 19.4035 5.59646 25 12.5 25C19.4035 25 25 19.4035 25 12.5C24.9922 5.59969 19.4003 0.0078125 12.5 0ZM12.5 24.1667C6.05667 24.1667 0.833333 18.9433 0.833333 12.5C0.833333 6.05667 6.05667 0.833333 12.5 0.833333C18.9433 0.833333 24.1667 6.05667 24.1667 12.5C24.1593 18.9403 18.9403 24.1593 12.5 24.1667Z" fill="#2E2E2E"/>
<path d="M13.8525 20.3213C13.8301 20.0923 13.6263 19.9247 13.3973 19.9471C13.3919 19.9476 13.3865 19.9482 13.3812 19.9489L13.3828 19.9485C12.7962 20.0167 12.2036 20.0167 11.617 19.9485C11.3883 19.9217 11.1813 20.0853 11.1545 20.3139C11.1277 20.5426 11.2913 20.7496 11.5199 20.7764C12.1705 20.8524 12.8277 20.8524 13.4782 20.7764C13.7073 20.7542 13.8748 20.5503 13.8525 20.3213Z" fill="#2E2E2E"/>
<path d="M18.8748 7.13085C18.7269 6.95455 18.4641 6.93147 18.2878 7.07939C18.2872 7.07986 18.2867 7.08038 18.286 7.08085C18.1102 7.22918 18.0878 7.49199 18.236 7.66793C20.7483 10.6502 20.5561 15.0601 17.794 17.8125C17.6309 17.975 17.6305 18.2389 17.7929 18.4019C17.9554 18.5649 18.2193 18.5654 18.3823 18.4029C21.4519 15.345 21.666 10.4449 18.8748 7.13085Z" fill="#2E2E2E"/>
<path d="M14.4667 4.39973C12.8384 4.00947 11.1306 4.11437 9.56216 4.70098C9.34675 4.78197 9.23784 5.02228 9.31883 5.23765C9.37987 5.39999 9.53508 5.50744 9.70847 5.5076C9.75831 5.50734 9.80769 5.49822 9.85425 5.48056C11.2666 4.95239 12.8046 4.85807 14.2709 5.20973C14.4946 5.26379 14.7198 5.12635 14.7738 4.90265C14.8279 4.67895 14.6904 4.45379 14.4667 4.39973Z" fill="#2E2E2E"/>
<path d="M7.18623 17.7915C5.78159 16.3893 4.99435 14.4847 4.99914 12.4999C4.99503 10.9142 5.49732 9.36853 6.43289 8.08821C6.57118 7.90426 6.53414 7.64306 6.35019 7.50478C6.16623 7.3665 5.90503 7.40353 5.76675 7.58749C5.7643 7.59077 5.7619 7.59405 5.75956 7.59738C3.35055 10.9093 3.70503 15.4807 6.59581 18.3815C6.75873 18.5446 7.023 18.5447 7.18602 18.3818C7.34904 18.2188 7.34914 17.9546 7.18623 17.7915Z" fill="#2E2E2E"/>
</svg>
